<svg width="27" height="27" viewBox="0 0 27 27" fill="none" xmlns="http://www.w3.org/2000/svg">
<path d="M8.91946 2.28894C8.83839 2.23937 8.77313 2.16773 8.73131 2.0824C8.68949 1.99707 8.67286 1.9016 8.68335 1.80715C8.69385 1.71271 8.73103 1.62322 8.79056 1.54915C8.85009 1.47508 8.92949 1.41951 9.01946 1.38894C10.8413 0.758686 12.7808 0.542731 14.6967 0.756809C16.6126 0.970886 18.4566 1.6096 20.0945 2.62644C20.1554 2.66281 20.2079 2.71174 20.2485 2.76996C20.289 2.82819 20.3167 2.89438 20.3297 2.96415C20.3427 3.03391 20.3408 3.10564 20.3239 3.17457C20.307 3.2435 20.2757 3.30806 20.232 3.36394C18.7786 5.20818 17.0043 6.77497 14.9945 7.98894C13.3679 5.70455 11.3027 3.76688 8.91946 2.28894V2.28894ZM13.207 8.92644C11.3768 6.43985 8.97615 4.42927 6.20696 3.06394C6.1252 3.0269 6.03546 3.01093 5.94594 3.01748C5.85642 3.02403 5.76996 3.0529 5.69446 3.10144C3.45388 4.71522 1.77874 6.99393 0.906959 9.61394C0.886331 9.68044 0.87982 9.75052 0.887842 9.81968C0.895865 9.88884 0.918243 9.95557 0.953545 10.0156C0.988847 10.0756 1.03629 10.1276 1.09285 10.1682C1.1494 10.2088 1.21381 10.2372 1.28196 10.2514C2.58819 10.5333 3.92066 10.6758 5.25696 10.6764C8.00288 10.6799 10.7163 10.0826 13.207 8.92644V8.92644ZM26.182 12.2639C25.8622 9.36451 24.5766 6.65687 22.532 4.57644C22.4815 4.52727 22.4214 4.48904 22.3555 4.46414C22.2895 4.43924 22.2192 4.4282 22.1488 4.43172C22.0784 4.43524 22.0095 4.45324 21.9464 4.48459C21.8833 4.51595 21.8273 4.55998 21.782 4.61394C20.2013 6.63117 18.2653 8.34261 16.0695 9.66394C16.7544 10.8525 17.3237 12.1041 17.7695 13.4014C19.5584 12.9177 21.4037 12.6739 23.257 12.6764C24.0506 12.6783 24.8434 12.7242 25.632 12.8139C25.7061 12.8218 25.7811 12.813 25.8514 12.7881C25.9217 12.7633 25.9856 12.723 26.0383 12.6703C26.091 12.6176 26.1313 12.5537 26.1562 12.4834C26.181 12.4131 26.1898 12.3381 26.182 12.2639V12.2639ZM18.3195 15.3264C18.6867 16.9042 18.8713 18.519 18.8695 20.1389C18.8685 21.6865 18.6967 23.2292 18.357 24.7389C18.3347 24.8318 18.3395 24.9291 18.3707 25.0193C18.402 25.1095 18.4584 25.1889 18.5333 25.248C18.6083 25.3072 18.6986 25.3437 18.7936 25.3531C18.8886 25.3626 18.9843 25.3447 19.0695 25.3014C20.9662 24.3527 22.6024 22.9548 23.8354 21.2294C25.0685 19.5039 25.8612 17.5032 26.1445 15.4014C26.1532 15.3357 26.1488 15.2689 26.1314 15.2049C26.1141 15.1409 26.0842 15.0809 26.0435 15.0286C26.0028 14.9762 25.9521 14.9325 25.8943 14.9C25.8365 14.8674 25.7728 14.8467 25.707 14.8389C24.8951 14.728 24.0764 14.6737 23.257 14.6764C21.5897 14.6744 19.9294 14.8929 18.3195 15.3264V15.3264ZM15.857 14.0264C15.4608 12.8419 14.9413 11.7023 14.307 10.6264C11.482 11.9793 8.38913 12.6799 5.25696 12.6764C3.7906 12.6756 2.32839 12.5206 0.894459 12.2139C0.825 12.1995 0.75327 12.2001 0.684034 12.2155C0.614798 12.231 0.54964 12.261 0.49289 12.3035C0.43614 12.3461 0.389096 12.4002 0.354884 12.4624C0.320671 12.5245 0.300073 12.5932 0.294459 12.6639C0.269459 12.9973 0.256959 13.3348 0.256959 13.6764C0.256324 15.4563 0.622251 17.2173 1.33194 18.8496C2.04162 20.4818 3.07986 21.9505 4.38196 23.1639C4.43562 23.2155 4.50036 23.254 4.57122 23.2767C4.64208 23.2993 4.71719 23.3055 4.79079 23.2946C4.86438 23.2837 4.93452 23.2562 4.99582 23.214C5.05713 23.1719 5.10797 23.1163 5.14446 23.0514C7.58342 18.911 11.3626 15.7272 15.857 14.0264V14.0264ZM6.71946 24.3264C6.68611 24.3838 6.66449 24.4471 6.65587 24.5129C6.64725 24.5787 6.6518 24.6455 6.66925 24.7095C6.6867 24.7734 6.7167 24.8333 6.75751 24.8856C6.79832 24.9379 6.84912 24.9815 6.90696 25.0139C8.84422 26.108 11.0321 26.6808 13.257 26.6764C14.0157 26.6798 14.7731 26.6128 15.5195 26.4764C15.6059 26.4621 15.6866 26.4242 15.7528 26.3668C15.819 26.3095 15.868 26.2349 15.8945 26.1514C16.5428 24.2133 16.8721 22.1827 16.8695 20.1389C16.8688 18.7304 16.7137 17.3262 16.407 15.9514C12.3124 17.5487 8.89189 20.5058 6.71946 24.3264V24.3264Z" fill="url(#paint0_linear_9_62)"/>
<defs>
<linearGradient id="paint0_linear_9_62" x1="1.69871" y1="5.03834" x2="27.6792" y2="12.5813" gradientUnits="userSpaceOnUse">
<stop stop-color="#FF4D00"/>
<stop offset="1" stop-color="#FF00E5"/>
</linearGradient>
</defs>
</svg>
