<svg width="18" height="25" viewBox="0 0 18 25" fill="none" xmlns="http://www.w3.org/2000/svg">
<path d="M15.7402 8.33232C16.5174 7.74938 17.0916 6.93667 17.3813 6.0093C17.6709 5.08194 17.6615 4.08693 17.3543 3.16523C17.047 2.24352 16.4576 1.44185 15.6694 0.873772C14.8812 0.305691 13.9343 0 12.9627 0H4.63043C3.65887 0 2.71194 0.305691 1.92377 0.873772C1.1356 1.44185 0.546148 2.24352 0.238913 3.16523C-0.0683208 4.08693 -0.077763 5.08194 0.211925 6.0093C0.501612 6.93667 1.07574 7.74938 1.85299 8.33232C1.2645 8.77335 0.789553 9.34824 0.467494 10.0094C0.145435 10.6705 -0.0144688 11.3989 0.00102801 12.1341C0.0165248 12.8694 0.206976 13.5904 0.556606 14.2373C0.906237 14.8843 1.40498 15.4387 2.01154 15.8545C1.32162 16.3791 0.776996 17.071 0.429245 17.8649C0.0814934 18.6587 -0.0578802 19.5282 0.0243209 20.391C0.106522 21.2538 0.407577 22.0813 0.89898 22.7952C1.39038 23.5091 2.05587 24.0857 2.83243 24.4705C3.60899 24.8554 4.47092 25.0356 5.33661 24.9942C6.2023 24.9528 7.04309 24.6911 7.77938 24.2339C8.51566 23.7767 9.12308 23.1392 9.5441 22.3817C9.96513 21.6241 10.1858 20.7717 10.1853 19.905V15.7388C11.1675 16.4754 12.402 16.7917 13.6174 16.6181C14.8328 16.4445 15.9294 15.7952 16.666 14.813C17.4026 13.8308 17.7189 12.5963 17.5453 11.3809C17.3717 10.1656 16.7224 9.06894 15.7402 8.33232ZM8.33368 14.813H4.63043C3.89381 14.813 3.18735 14.5204 2.66648 13.9995C2.14561 13.4786 1.85299 12.7722 1.85299 12.0356C1.85299 11.2989 2.14561 10.5925 2.66648 10.0716C3.18735 9.55075 3.89381 9.25813 4.63043 9.25813H8.33368V14.813ZM12.9627 7.4065H10.1853V1.85163H12.9627C13.6994 1.85163 14.4058 2.14425 14.9267 2.66512C15.4476 3.18599 15.7402 3.89244 15.7402 4.62907C15.7402 5.36569 15.4476 6.07214 14.9267 6.59301C14.4058 7.11388 13.6994 7.4065 12.9627 7.4065Z" fill="url(#paint0_linear_725_3)"/>
<defs>
<linearGradient id="paint0_linear_725_3" x1="0.978222" y1="4.19396" x2="19.3218" y2="7.95197" gradientUnits="userSpaceOnUse">
<stop stop-color="#FF4D00"/>
<stop offset="1" stop-color="#FF00E5"/>
</linearGradient>
</defs>
</svg>
