<svg width="31" height="27" viewBox="0 0 31 27" fill="none" xmlns="http://www.w3.org/2000/svg">
<path d="M30.179 21.3L25.171 26.632C25.0631 26.749 24.9319 26.8422 24.7859 26.9056C24.6398 26.969 24.4822 27.0011 24.323 27H0.583007C0.469849 26.9994 0.359248 26.9663 0.26439 26.9046C0.169533 26.8429 0.0944197 26.7552 0.0480067 26.652C0.00246329 26.5491 -0.0114593 26.4349 0.00800667 26.324C0.0278904 26.2126 0.0792456 26.1092 0.156007 26.026L5.15801 20.694C5.26586 20.5769 5.39702 20.4837 5.54307 20.4203C5.68912 20.3569 5.84681 20.3248 6.00601 20.326H29.746C29.8598 20.3229 29.9719 20.3537 30.0682 20.4145C30.1644 20.4753 30.2404 20.5633 30.2865 20.6674C30.3326 20.7715 30.3467 20.8869 30.327 20.999C30.3073 21.1111 30.2548 21.2149 30.176 21.297L30.179 21.3V21.3ZM25.17 10.56C25.0603 10.4453 24.9288 10.3537 24.7831 10.2905C24.6375 10.2273 24.4807 10.1938 24.322 10.192H0.583007C0.469739 10.1927 0.35906 10.226 0.264191 10.2879C0.169322 10.3498 0.0942726 10.4376 0.0480067 10.541C0.00252191 10.644 -0.0113985 10.7582 0.00800667 10.869C0.0280067 10.981 0.0790067 11.082 0.156007 11.166L5.15801 16.501C5.26501 16.616 5.39801 16.709 5.54201 16.771C5.68901 16.835 5.84501 16.866 6.00601 16.869H29.746C29.8586 16.8693 29.9688 16.8365 30.0628 16.7746C30.1569 16.7127 30.2307 16.6245 30.275 16.521C30.3206 16.4182 30.3347 16.304 30.3155 16.1932C30.2963 16.0823 30.2446 15.9796 30.167 15.898L25.167 10.563L25.17 10.56V10.56ZM0.582007 6.73003H24.322C24.4815 6.72919 24.6393 6.69656 24.786 6.63403C24.933 6.57003 25.063 6.48003 25.17 6.36203L30.18 1.03003C30.2378 0.968269 30.2814 0.894585 30.3077 0.814167C30.3339 0.73375 30.3423 0.648552 30.3321 0.56457C30.3219 0.480588 30.2934 0.399861 30.2486 0.328069C30.2039 0.256278 30.1439 0.195166 30.073 0.149035C29.9768 0.0873863 29.8643 0.0560342 29.75 0.0590348H6.00601C5.84801 0.0590348 5.68901 0.0930348 5.54201 0.154035C5.39619 0.216937 5.26532 0.309974 5.15801 0.427035L0.156007 5.75903C0.0794866 5.84161 0.0285563 5.9446 0.00938724 6.05553C-0.00978182 6.16646 0.00363318 6.28057 0.0480067 6.38403C0.0943491 6.48708 0.169307 6.57466 0.26397 6.63635C0.358633 6.69804 0.469019 6.73125 0.582007 6.73203V6.73003V6.73003Z" fill="url(#paint0_linear_9_82)"/>
<defs>
<linearGradient id="paint0_linear_9_82" x1="1.68638" y1="4.57845" x2="31.4485" y2="14.3355" gradientUnits="userSpaceOnUse">
<stop stop-color="#FF4D00"/>
<stop offset="1" stop-color="#FF00E5"/>
</linearGradient>
</defs>
</svg>
