<svg width="29" height="25" viewBox="0 0 29 25" fill="none" xmlns="http://www.w3.org/2000/svg">
<path d="M27.7254 5.62418L23.9504 9.38668C23.2004 18.1242 15.8254 24.9117 7.01294 24.9117C5.20044 24.9117 3.70044 24.6242 2.56294 24.0617C1.65044 23.5992 1.27544 23.1117 1.17544 22.9617C1.0927 22.836 1.03938 22.6933 1.01947 22.5442C0.999548 22.395 1.01354 22.2433 1.0604 22.1003C1.10725 21.9574 1.18577 21.8268 1.2901 21.7184C1.39442 21.61 1.52187 21.5265 1.66294 21.4742C1.68794 21.4617 4.63794 20.3367 6.55044 18.1742C5.36436 17.3297 4.32188 16.2998 3.46294 15.1242C1.75044 12.7992 -0.0620634 8.76168 1.02544 2.73668C1.05962 2.55756 1.14155 2.391 1.26256 2.25459C1.38357 2.11818 1.53917 2.01698 1.71294 1.96168C1.88725 1.9046 2.07391 1.89656 2.25249 1.93845C2.43107 1.98034 2.59468 2.07054 2.72544 2.19918C2.76294 2.24918 6.92544 6.34918 12.0129 7.67418V6.91168C12.0178 6.11882 12.1789 5.33469 12.4868 4.60406C12.7948 3.87344 13.2436 3.21062 13.8078 2.65347C14.3719 2.09631 15.0402 1.65573 15.7746 1.35687C16.509 1.05801 17.2951 0.906737 18.0879 0.911677C19.1285 0.926519 20.1476 1.21065 21.0457 1.7364C21.9439 2.26215 22.6905 3.01158 23.2129 3.91168H27.0129C27.2104 3.91106 27.4036 3.96889 27.5682 4.07789C27.7328 4.18689 27.8614 4.34218 27.9379 4.52418C28.01 4.70889 28.0283 4.91022 27.9907 5.10489C27.953 5.29955 27.8611 5.47959 27.7254 5.62418V5.62418Z" fill="url(#paint0_linear_9_66)"/>
<defs>
<linearGradient id="paint0_linear_9_66" x1="2.21501" y1="4.93778" x2="28.9554" y2="13.7978" gradientUnits="userSpaceOnUse">
<stop stop-color="#FF4D00"/>
<stop offset="1" stop-color="#FF00E5"/>
</linearGradient>
</defs>
</svg>
