<svg width="25" height="31" viewBox="0 0 25 31" fill="none" xmlns="http://www.w3.org/2000/svg">
<path d="M24.3774 15.3307L13.3774 1.33071C13.2839 1.21118 13.1644 1.11452 13.0279 1.04805C12.8915 0.981569 12.7417 0.947021 12.5899 0.947021C12.4381 0.947021 12.2884 0.981569 12.1519 1.04805C12.0155 1.11452 11.896 1.21118 11.8024 1.33071L0.802417 15.3307C0.66239 15.5041 0.586014 15.7203 0.586014 15.9432C0.586014 16.1661 0.66239 16.3823 0.802417 16.5557L11.8024 30.5557C11.896 30.6752 12.0155 30.7719 12.1519 30.8384C12.2884 30.9048 12.4381 30.9394 12.5899 30.9394C12.7417 30.9394 12.8915 30.9048 13.0279 30.8384C13.1644 30.7719 13.2839 30.6752 13.3774 30.5557L24.3774 16.5557C24.5174 16.3823 24.5938 16.1661 24.5938 15.9432C24.5938 15.7203 24.5174 15.5041 24.3774 15.3307V15.3307ZM13.5899 19.3932V4.83071L22.0149 15.5557L13.5899 19.3932ZM11.5899 19.3932L3.16492 15.5557L11.5899 4.83071V19.3932ZM11.5899 21.5932V27.0557L4.91492 18.5557L11.5899 21.5932Z" fill="url(#paint0_linear_9_79)"/>
<defs>
<linearGradient id="paint0_linear_9_79" x1="1.92101" y1="5.97849" x2="26.6617" y2="11.7443" gradientUnits="userSpaceOnUse">
<stop stop-color="#FF4D00"/>
<stop offset="1" stop-color="#FF00E5"/>
</linearGradient>
</defs>
</svg>
