<svg width="26" height="26" viewBox="0 0 26 26" fill="none" xmlns="http://www.w3.org/2000/svg">
<path d="M23.7778 0.176636H2.77783C2.2474 0.176636 1.73869 0.387349 1.36362 0.762422C0.988546 1.13749 0.777832 1.6462 0.777832 2.17664V23.1766C0.777832 23.7071 0.988546 24.2158 1.36362 24.5908C1.73869 24.9659 2.2474 25.1766 2.77783 25.1766H23.7778C24.3083 25.1766 24.817 24.9659 25.192 24.5908C25.5671 24.2158 25.7778 23.7071 25.7778 23.1766V2.17664C25.7778 1.6462 25.5671 1.13749 25.192 0.762422C24.817 0.387349 24.3083 0.176636 23.7778 0.176636ZM9.27783 18.6766C9.27783 18.9419 9.17247 19.1962 8.98494 19.3837C8.7974 19.5713 8.54305 19.6766 8.27783 19.6766C8.01262 19.6766 7.75826 19.5713 7.57073 19.3837C7.38319 19.1962 7.27783 18.9419 7.27783 18.6766V10.6766C7.27783 10.4114 7.38319 10.1571 7.57073 9.96953C7.75826 9.78199 8.01262 9.67664 8.27783 9.67664C8.54305 9.67664 8.7974 9.78199 8.98494 9.96953C9.17247 10.1571 9.27783 10.4114 9.27783 10.6766V18.6766ZM8.27783 8.17664C7.98116 8.17664 7.69115 8.08866 7.44448 7.92384C7.1978 7.75902 7.00554 7.52475 6.89201 7.25066C6.77848 6.97657 6.74878 6.67497 6.80665 6.384C6.86453 6.09303 7.00739 5.82575 7.21717 5.61598C7.42695 5.4062 7.69422 5.26334 7.9852 5.20546C8.27617 5.14758 8.57777 5.17728 8.85186 5.29082C9.12595 5.40435 9.36021 5.59661 9.52504 5.84328C9.68986 6.08995 9.77783 6.37996 9.77783 6.67664C9.77783 7.07446 9.6198 7.45599 9.33849 7.7373C9.05719 8.0186 8.67566 8.17664 8.27783 8.17664V8.17664ZM20.2778 18.6766C20.2778 18.9419 20.1725 19.1962 19.9849 19.3837C19.7974 19.5713 19.543 19.6766 19.2778 19.6766C19.0126 19.6766 18.7583 19.5713 18.5707 19.3837C18.3832 19.1962 18.2778 18.9419 18.2778 18.6766V14.1766C18.2778 13.5136 18.0144 12.8777 17.5456 12.4089C17.0768 11.94 16.4409 11.6766 15.7778 11.6766C15.1148 11.6766 14.4789 11.94 14.0101 12.4089C13.5412 12.8777 13.2778 13.5136 13.2778 14.1766V18.6766C13.2778 18.9419 13.1725 19.1962 12.9849 19.3837C12.7974 19.5713 12.543 19.6766 12.2778 19.6766C12.0126 19.6766 11.7583 19.5713 11.5707 19.3837C11.3832 19.1962 11.2778 18.9419 11.2778 18.6766V10.6766C11.2771 10.4305 11.3672 10.1928 11.5308 10.009C11.6945 9.82515 11.9201 9.70811 12.1646 9.68025C12.4092 9.65239 12.6554 9.71568 12.8561 9.858C13.0569 10.0003 13.1982 10.2117 13.2528 10.4516C13.9295 9.99295 14.7183 9.72724 15.5346 9.68305C16.3508 9.63886 17.1637 9.81785 17.8859 10.2008C18.6081 10.5838 19.2124 11.1562 19.6338 11.8567C20.0552 12.5571 20.2779 13.3592 20.2778 14.1766V18.6766Z" fill="url(#paint0_linear_9_75)"/>
<defs>
<linearGradient id="paint0_linear_9_75" x1="2.168" y1="4.37059" x2="27.208" y2="11.6607" gradientUnits="userSpaceOnUse">
<stop stop-color="#FF4D00"/>
<stop offset="1" stop-color="#FF00E5"/>
</linearGradient>
</defs>
</svg>
