<?xml version="1.0" encoding="UTF-8"?>
<svg width="204px" height="61px" viewBox="0 0 204 61" version="1.1" xmlns="http://www.w3.org/2000/svg" xmlns:xlink="http://www.w3.org/1999/xlink">
    <!-- Generator: Sketch 51.3 (57544) - http://www.bohemiancoding.com/sketch -->
    <title>Artboard</title>
    <desc>Created with Sketch.</desc>
    <defs></defs>
    <g id="Artboard" stroke="none" stroke-width="1" fill="none" fill-rule="evenodd">
        <path d="M31.659,30.701 C40.695,29.881 48.18,24.87 48.18,15.037 C48.18,2.374 37.682,0 27.284,0 C23.455,0.093 19.527,0.279 15.697,0.365 C10.497,0.278 5.201,0.092 0,0 L0,2.1 C2.92,2.1 6.752,2.007 7.758,5.197 C8.577,7.658 8.577,14.398 8.577,17.308 L8.577,42.997 C8.577,45.917 8.577,52.657 7.758,55.117 C6.752,58.213 2.92,58.213 0,58.213 L0,60.305 C4.564,60.215 9.126,60.033 13.684,59.942 C18.066,60.033 22.357,60.215 26.549,60.305 L26.549,58.213 C23.629,58.213 19.89,58.304 18.798,55.117 C17.972,52.657 17.972,45.917 17.972,42.997 L17.972,32.252 C22.81,32.252 22.443,32.798 25.457,36.258 L40.603,55.027 L44.893,60.305 C47.171,60.215 49.452,60.033 51.735,59.942 C54.476,60.033 57.209,60.215 59.946,60.305 L59.946,58.213 C55.291,57.481 53.923,56.21 50.999,52.839 L31.659,30.701 M17.975,6.014 C17.975,5.012 17.792,3.28 18.981,2.734 C19.8,2.372 23.818,2.644 24.907,2.644 C33.123,2.644 37.682,8.292 37.682,16.31 C37.682,29.516 29.379,29.789 17.971,29.789 L17.971,6.014 L17.975,6.014" id="Fill-44" fill="#F36E21"></path>
        <path d="M96.595,42.998 C96.595,45.918 96.595,52.658 95.685,55.118 C94.496,58.214 90.751,58.214 87.837,58.214 L87.837,60.306 C92.396,60.216 97.05,60.033 101.612,59.943 C105.994,60.033 110.465,60.216 114.75,60.306 L114.75,58.214 C111.829,58.214 108.091,58.214 106.902,55.118 C105.993,52.658 105.993,45.918 105.993,42.998 L105.993,17.309 C105.993,14.399 105.993,7.658 106.902,5.198 C108.091,2.101 111.829,2.101 114.75,2.101 L114.75,0.001 C110.191,0.094 105.624,0.28 100.975,0.366 C96.593,0.279 92.218,0.093 87.836,0.001 L87.836,2.101 C90.75,2.101 94.495,2.101 95.684,5.198 C96.594,7.659 96.594,14.399 96.594,17.309 L96.594,42.998" id="Fill-45" fill="#F36E21"></path>
        <path d="M203.065,0.001 L147.044,0.001 L147.044,14.212 L149.142,14.212 C149.505,3.377 153.887,2.918 162.916,2.918 C166.571,2.918 170.583,2.644 170.583,5.379 L170.583,48.556 C170.583,55.302 169.305,57.853 160.456,58.215 L160.456,60.307 C165.382,60.217 170.121,60.034 174.965,59.944 C179.983,60.034 185.093,60.217 190.11,60.307 L190.11,58.215 C181.254,57.853 179.983,55.302 179.983,48.556 L179.983,5.378 C179.983,2.461 185.457,2.917 188.832,2.917 C197.409,2.917 200.875,5.284 201.427,14.211 L203.887,14.211 L203.065,0.001" id="Fill-46" fill="#F36E21"></path>
        <circle id="Oval" fill="#F36E21" fill-rule="nonzero" cx="71" cy="30" r="5"></circle>
        <circle id="Oval" fill="#F36E21" fill-rule="nonzero" cx="132" cy="30" r="5"></circle>
    </g>
</svg>