<svg viewBox="0 0 58 72" xmlns="http://www.w3.org/2000/svg">
    <title>Nazareth College</title>
    <defs>
        <polygon id="path-1" points="20.359 22.94 0.585 22.94 0.585 0.631 20.359 0.631"></polygon>
        <polygon id="path-3" points="56.597 71.94 0.562 71.94 0.562 0 56.597 0"></polygon>
    </defs>
    <g id="Page-1" stroke="none" stroke-width="1" fill="none" fill-rule="evenodd">
        <g id="Naz-Shield-Copy">
            <path d="M0,6.234 C17.681,6.234 24.727,2.33 27.359,0 L27.359,9.687 C26.766,10.57 22.502,15.752 4.501,16.502 C4.501,16.502 0,16.502 0,6.234" id="Fill-1" fill="#735A86"></path>
            <g id="Group-5" transform="translate(7.000000, 49.000000)">
                <g id="Clip-3"></g>
                <path d="M10.75,13.32 C17.567,11.752 19.937,8.959 20.359,8.328 L20.359,0.631 C17.453,2.764 11.714,5.345 0.585,6.166 C0.585,6.166 5.249,14.587 10.75,13.32" id="Fill-2" fill="#735A86" mask="url(#mask-2)"></path>
                <path d="M10.744,16.576 C14.773,19.798 18.432,21.953 20.359,23 L20.359,12.541 C18.516,13.895 15.525,15.427 10.744,16.576" id="Fill-4" fill="#735A86" mask="url(#mask-2)"></path>
            </g>
            <path d="M27.359,19.539 L27.359,13.896 C23.857,16.469 16.233,19.696 0,19.696 C0,28.422 4.455,28.417 4.455,28.417 C10.412,28.172 14.847,27.438 18.163,26.537 C19.721,22.796 23.194,20.06 27.359,19.539" id="Fill-6" fill="#735A86"></path>
            <path d="M17.28,30.96 C17.28,30.613 17.303,30.271 17.332,29.933 C13.074,30.919 7.461,31.608 0,31.608 C0,40.275 5.588,40.273 5.588,40.273 C11.921,39.938 16.448,39.039 19.694,37.998 C18.187,36.051 17.28,33.614 17.28,30.96" id="Fill-7" fill="#735A86"></path>
            <g id="Group-11" transform="translate(1.000000, 0.000000)">
                <g id="Clip-9"></g>
                <path d="M21.214,40.403 C16.935,42.02 10.426,43.378 0.562,43.508 C0.562,43.508 2,52.602 8.626,51.82 C21.596,50.295 25.83,46.208 26.359,45.421 L26.359,42.38 C24.462,42.143 22.708,41.448 21.214,40.403" id="Fill-8" fill="#735A86" mask="url(#mask-4)"></path>
                <path d="M47.737,40.771 C47.608,40.773 47.48,40.773 47.347,40.766 C47.796,37.68 49.845,36.462 52.813,35.744 C51.792,38.162 50.292,40.666 47.737,40.771 Z M46.806,46.705 C46.64,46.713 46.47,46.708 46.296,46.694 C46.155,46.68 46.011,46.662 45.866,46.633 C46.628,43.632 48.784,42.702 51.808,42.398 C50.647,44.477 49.058,46.617 46.806,46.705 Z M43.69,52.297 C43.54,52.303 43.386,52.297 43.233,52.281 C42.815,52.248 42.394,52.139 41.97,51.961 C42.835,50.029 44.269,49.083 46.46,48.993 C46.907,48.977 47.386,48.992 47.925,49.039 C48.12,49.055 48.312,49.076 48.503,49.101 C47.222,50.648 45.585,52.221 43.69,52.297 Z M39.503,56.656 C39.337,56.664 39.173,56.662 39.009,56.646 C38.323,56.586 37.679,56.338 37.042,55.895 C37.94,54.578 39.073,53.906 40.499,53.852 C40.743,53.844 40.993,53.85 41.243,53.873 C42.165,53.953 43.112,54.229 43.925,54.521 C42.718,55.509 41.108,56.594 39.503,56.656 Z M36.079,60.539 C35.847,60.549 35.624,60.544 35.407,60.524 C34.206,60.416 33.217,59.873 32.398,58.859 C33.189,58.193 34.001,57.852 34.868,57.82 C35.03,57.812 35.194,57.814 35.355,57.829 C36.741,57.953 38.126,58.803 39.347,59.721 C38.415,60.102 37.233,60.491 36.079,60.539 Z M35.735,48.018 C36.128,50.958 36.069,54.015 33.718,55.748 C32.564,52.912 33.648,50.562 35.735,48.018 Z M39.181,43.677 C40.362,46.314 41.149,49.24 39.399,51.742 C37.524,49.482 37.905,46.853 39.181,43.677 Z M38.095,8.936 C40.456,10.107 42.671,11.792 42.688,15.014 C39.995,14.635 38.851,12.328 38.095,8.936 Z M44.694,22.037 C44.563,22.037 44.444,22.031 44.331,22.021 C41.837,21.799 40.573,19.702 39.558,16.562 C42.019,17.438 44.376,18.836 44.694,22.037 Z M43.104,24.229 C45.28,25.823 47.228,27.893 46.806,31.076 C44.198,30.211 43.386,27.719 43.104,24.229 Z M43.612,46.813 C41.407,44.991 41.358,42.33 42.101,38.932 C43.689,41.273 44.931,43.977 43.612,46.813 Z M43.335,31.446 C45.142,33.56 46.648,36.084 45.616,39.076 C43.245,37.557 42.933,34.916 43.335,31.446 Z M45.733,10.827 C46.97,13.436 47.808,16.338 46.104,18.889 C44.188,16.673 44.519,14.037 45.733,10.827 Z M49.483,18.912 C50.233,21.756 50.546,24.797 48.429,26.89 C46.94,24.273 47.728,21.771 49.483,18.912 Z M52.087,27.576 C51.929,30.545 51.3,33.521 48.683,34.626 C48.085,31.571 49.579,29.547 52.087,27.576 Z M29.236,0 L29.236,19.538 C34.92,20.247 39.32,25.085 39.32,30.96 C39.32,36.835 34.92,41.672 29.236,42.381 L29.236,72 C35.048,68.85 56.597,55.65 56.597,33.275 L56.597,6.219 C38.868,6.219 31.854,2.334 29.236,0 L29.236,0 Z" id="Fill-10" fill="#785787" mask="url(#mask-4)"></path>
            </g>
            <path d="M29.306,31.219 C29.165,31.499 28.819,31.605 28.543,31.464 C28.265,31.319 28.156,30.979 28.297,30.701 C28.441,30.423 28.787,30.314 29.063,30.456 C29.34,30.602 29.444,30.942 29.306,31.219" id="Fill-27" fill="#3F314B"></path>
            <path d="M30.217,31.03 L30.653,29.859 L33.917,29.249 L30.217,31.03 Z M28.941,33.14 L29.621,32.158 L30.278,36.035 L28.941,33.14 Z M24.961,38.346 L27.876,30.484 L32.64,23.573 L29.718,31.435 L24.961,38.346 Z M23.685,32.715 L27.305,30.972 L26.878,32.118 L23.685,32.715 Z M28.533,28.855 L27.837,29.86 L27.165,25.884 L28.533,28.855 Z M33.603,23.781 C29.641,21.127 24.271,22.188 21.623,26.155 C18.966,30.12 20.027,35.486 23.993,38.141 C27.96,40.793 33.324,39.732 35.982,35.767 C38.631,31.802 37.57,26.434 33.603,23.781 L33.603,23.781 Z" id="Fill-28" fill="#785787"></path>
        </g>
    </g>
</svg>
